<mxfile host="app.diagrams.net" modified="2021-02-15T19:04:29.930Z" agent="5.0 (Windows NT 10.0; Win64; x64) AppleWebKit/537.36 (KHTML, like Gecko) Chrome/88.0.4324.150 Safari/537.36" etag="tnZfhC_Sqiz1qDYisVij" version="14.2.9" type="github">
  <diagram id="WLptHDuUrEjq5fwqjyCB" name="Page-1">
    <mxGraphModel dx="392" dy="685" grid="1" gridSize="10" guides="1" tooltips="1" connect="1" arrows="1" fold="1" page="1" pageScale="1" pageWidth="827" pageHeight="1169" math="0" shadow="0">
      <root>
        <mxCell id="0" />
        <mxCell id="1" parent="0" />
        <mxCell id="E6Bq7t6VjY74jGHtwaOP-8" value="" style="edgeStyle=orthogonalEdgeStyle;rounded=0;orthogonalLoop=1;jettySize=auto;html=1;" edge="1" parent="1" source="E6Bq7t6VjY74jGHtwaOP-3" target="E6Bq7t6VjY74jGHtwaOP-4">
          <mxGeometry relative="1" as="geometry" />
        </mxCell>
        <mxCell id="E6Bq7t6VjY74jGHtwaOP-3" value="Start" style="ellipse;whiteSpace=wrap;html=1;" vertex="1" parent="1">
          <mxGeometry x="120" y="10" width="120" height="80" as="geometry" />
        </mxCell>
        <mxCell id="E6Bq7t6VjY74jGHtwaOP-4" value="Number1" style="shape=parallelogram;perimeter=parallelogramPerimeter;whiteSpace=wrap;html=1;fixedSize=1;" vertex="1" parent="1">
          <mxGeometry x="120" y="120" width="120" height="60" as="geometry" />
        </mxCell>
        <mxCell id="E6Bq7t6VjY74jGHtwaOP-11" style="edgeStyle=orthogonalEdgeStyle;rounded=0;orthogonalLoop=1;jettySize=auto;html=1;exitX=0.5;exitY=1;exitDx=0;exitDy=0;" edge="1" parent="1" source="E6Bq7t6VjY74jGHtwaOP-4">
          <mxGeometry relative="1" as="geometry">
            <mxPoint x="170" y="200" as="targetPoint" />
          </mxGeometry>
        </mxCell>
        <mxCell id="E6Bq7t6VjY74jGHtwaOP-13" value="" style="edgeStyle=orthogonalEdgeStyle;rounded=0;orthogonalLoop=1;jettySize=auto;html=1;" edge="1" parent="1" source="E6Bq7t6VjY74jGHtwaOP-5" target="E6Bq7t6VjY74jGHtwaOP-6">
          <mxGeometry relative="1" as="geometry" />
        </mxCell>
        <mxCell id="E6Bq7t6VjY74jGHtwaOP-5" value="Number2" style="shape=parallelogram;perimeter=parallelogramPerimeter;whiteSpace=wrap;html=1;fixedSize=1;" vertex="1" parent="1">
          <mxGeometry x="120" y="210" width="120" height="60" as="geometry" />
        </mxCell>
        <mxCell id="E6Bq7t6VjY74jGHtwaOP-14" value="" style="edgeStyle=orthogonalEdgeStyle;rounded=0;orthogonalLoop=1;jettySize=auto;html=1;" edge="1" parent="1" source="E6Bq7t6VjY74jGHtwaOP-6" target="E6Bq7t6VjY74jGHtwaOP-7">
          <mxGeometry relative="1" as="geometry" />
        </mxCell>
        <mxCell id="E6Bq7t6VjY74jGHtwaOP-6" value="Number1+Number2" style="shape=document;whiteSpace=wrap;html=1;boundedLbl=1;" vertex="1" parent="1">
          <mxGeometry x="120" y="300" width="120" height="80" as="geometry" />
        </mxCell>
        <mxCell id="E6Bq7t6VjY74jGHtwaOP-7" value="Finished" style="ellipse;whiteSpace=wrap;html=1;" vertex="1" parent="1">
          <mxGeometry x="120" y="420" width="120" height="80" as="geometry" />
        </mxCell>
      </root>
    </mxGraphModel>
  </diagram>
</mxfile>
